# xmcd
# 
# Track frame offsets:
#     150
#     16173
#     28717
#     42743
#     58523
#     80399
#     94497
#     112994
#     131071
#     162380
#     181833
#     194428
#     216987
#     234353
#     246966
# 
# Disc length: 3554
# 
# Revision: 2
# Processed by: cddbd v1.5.2PL0 Copyright (c) Steve Scherf et al.
# Submitted via: fre:ac v1.0.31
# 
DISCID=cf0de00f
DTITLE=Milow - Milow
DYEAR=2009
DGENRE=Weltmusik
TTITLE0=Ayo technology
TTITLE1=You don't know
TTITLE2=One of it
TTITLE3=Out of my hands
TTITLE4=Canada
TTITLE5=The ride
TTITLE6=Stephanie
TTITLE7=Coming of age
TTITLE8=The priest
TTITLE9=House by the creek
TTITLE10=Dreamers and renegades
TTITLE11=Herold of free enterprise
TTITLE12=Darkness ahead and behind
TTITLE13=Launching ships
TTITLE14=Born in the eighties
EXTD=
EXTT0=
EXTT1=
EXTT2=
EXTT3=
EXTT4=
EXTT5=
EXTT6=
EXTT7=
EXTT8=
EXTT9=
EXTT10=
EXTT11=
EXTT12=
EXTT13=
EXTT14=
PLAYORDER=
